<svg width="30" height="30" viewBox="0 0 30 30" fill="none" xmlns="http://www.w3.org/2000/svg">
<path d="M25.3849 5.84409C23.5247 4.99058 21.5299 4.36172 19.4442 4.00151C19.4063 3.99456 19.3683 4.01194 19.3487 4.04666C19.0922 4.50297 18.808 5.0982 18.609 5.56608C16.3658 5.23022 14.134 5.23022 11.9367 5.56608C11.7376 5.08782 11.4432 4.50297 11.1855 4.04666C11.1659 4.01308 11.1279 3.9957 11.09 4.00151C9.00547 4.36052 7.0107 4.98938 5.14931 5.84409C5.13317 5.85104 5.11938 5.86261 5.1102 5.87766C1.32654 11.5304 0.289991 17.0442 0.798462 22.4896C0.800742 22.5163 0.815734 22.5417 0.836426 22.5579C3.33278 24.3912 5.75098 25.5042 8.1242 26.2419C8.16216 26.2535 8.20241 26.2396 8.22658 26.2083C8.78795 25.4417 9.28838 24.6333 9.71745 23.7832C9.74275 23.7335 9.71859 23.6744 9.66683 23.6547C8.87305 23.3536 8.11725 22.9864 7.39017 22.5696C7.33265 22.536 7.32803 22.4537 7.38099 22.4143C7.53399 22.2997 7.68704 22.1804 7.83314 22.06C7.85959 22.038 7.89641 22.0333 7.92748 22.0472C12.7039 24.228 17.875 24.228 22.595 22.0472C22.6261 22.0321 22.6629 22.0368 22.6905 22.0588C22.8367 22.1792 22.9897 22.2997 23.1438 22.4143C23.1967 22.4537 23.1932 22.5359 23.1358 22.5695C22.4087 22.9945 21.6529 23.3535 20.858 23.6535C20.8062 23.6731 20.7832 23.7334 20.8085 23.7832C21.2468 24.6321 21.7473 25.4404 22.2983 26.2071C22.3213 26.2396 22.3627 26.2535 22.4007 26.2418C24.7854 25.5042 27.2036 24.3912 29.6999 22.5579C29.7218 22.5417 29.7356 22.5173 29.7379 22.4907C30.3465 16.1952 28.7186 10.7266 25.4227 5.87875C25.4148 5.86261 25.401 5.85104 25.3849 5.84409ZM10.4308 19.1739C8.99282 19.1739 7.80789 17.8537 7.80789 16.2323C7.80789 14.6109 8.96979 13.2907 10.4308 13.2907C11.9033 13.2907 13.0768 14.6226 13.0537 16.2323C13.0537 17.8537 11.8918 19.1739 10.4308 19.1739ZM20.1287 19.1739C18.6907 19.1739 17.5058 17.8537 17.5058 16.2323C17.5058 14.6109 18.6677 13.2907 20.1287 13.2907C21.6012 13.2907 22.7746 14.6226 22.7516 16.2323C22.7516 17.8537 21.6012 19.1739 20.1287 19.1739Z" fill="white"/>
</svg>
