<svg width="30" height="30" viewBox="0 0 30 30" fill="none" xmlns="http://www.w3.org/2000/svg">
<path d="M22.6854 7.31812C22.3458 7.31812 22.0693 7.59454 22.0693 7.93421C22.0693 8.27388 22.3458 8.5503 22.6854 8.5503C23.0251 8.5503 23.3015 8.27393 23.3015 7.93421C23.3015 7.59449 23.0251 7.31812 22.6854 7.31812Z" fill="white"/>
<path d="M15.3103 9.84888C12.2986 9.84888 9.84839 12.2991 9.84839 15.3107C9.84839 18.3224 12.2986 20.7727 15.3103 20.7727C18.322 20.7727 20.7722 18.3225 20.7722 15.3108C20.7722 12.2991 18.322 9.84888 15.3103 9.84888Z" fill="white"/>
<path d="M21.0432 2.62256H9.57948C5.74349 2.62256 2.62268 5.74337 2.62268 9.5794V21.043C2.62268 24.8791 5.74349 27.9998 9.57948 27.9998H21.0432C24.8792 27.9998 28 24.879 28 21.043V9.5794C28 5.74337 24.8792 2.62256 21.0432 2.62256ZM15.3113 22.2717C11.4733 22.2717 8.35086 19.1493 8.35086 15.3112C8.35086 11.4731 11.4733 8.35079 15.3113 8.35079C19.1493 8.35079 22.2718 11.4732 22.2718 15.3112C22.2718 19.1492 19.1493 22.2717 15.3113 22.2717ZM22.6881 10.0492C21.5221 10.0492 20.5734 9.10051 20.5734 7.93444C20.5734 6.76837 21.5221 5.81965 22.6881 5.81965C23.8542 5.81965 24.8029 6.76832 24.8029 7.93439C24.8029 9.10046 23.8542 10.0492 22.6881 10.0492Z" fill="white"/>
</svg>
