<svg width="30" height="30" viewBox="0 0 30 30" fill="none" xmlns="http://www.w3.org/2000/svg">
<path d="M20.4812 19.7899C19.2321 19.7899 18.2136 18.7655 18.2136 17.5087C18.2136 16.2521 19.2321 15.2275 20.4812 15.2275C21.7305 15.2275 22.7489 16.2521 22.7489 17.5087C22.7489 18.7655 21.7305 19.7899 20.4812 19.7899V19.7899ZM20.8817 23.5337C19.3323 25.0881 16.3682 25.2108 15.4979 25.2108C14.6274 25.2108 11.6591 25.0881 10.1138 23.5337C9.88337 23.3017 9.88337 22.9296 10.1138 22.6974C10.3446 22.4653 10.7146 22.4653 10.9454 22.6974C11.9201 23.6783 14.005 24.0286 15.4979 24.0286C16.9865 24.0286 19.0754 23.6783 20.0505 22.6974C20.281 22.4653 20.6509 22.4653 20.8817 22.6974C21.1081 22.9296 21.1081 23.3017 20.8817 23.5337ZM8.23796 17.5089C8.23796 16.2523 9.25643 15.2277 10.5057 15.2277C11.7548 15.2277 12.7733 16.2523 12.7733 17.5089C12.7733 18.7655 11.7548 19.7903 10.5057 19.7903C9.25643 19.7899 8.23796 18.7655 8.23796 17.5089V17.5089ZM30 15.2277C30 13.463 28.5812 12.0356 26.8271 12.0356C25.9697 12.0356 25.1948 12.377 24.6248 12.9333C22.4572 11.357 19.4673 10.3412 16.1376 10.2229L17.5826 3.37912L22.305 4.39072C22.3617 5.59925 23.3451 6.56259 24.5597 6.56259C25.813 6.56259 26.8272 5.54227 26.8272 4.28121C26.8272 3.02032 25.813 2 24.5597 2C23.6672 2 22.9056 2.52102 22.5357 3.27406L17.2605 2.14441C17.1125 2.11378 16.9603 2.14032 16.8339 2.2233C16.7079 2.30645 16.6206 2.43341 16.5903 2.58228C16.5903 2.58228 15.006 10.1748 15.006 10.2187C11.6155 10.3061 8.56878 11.3264 6.36652 12.9245C5.7964 12.3729 5.02591 12.0356 4.17294 12.0356C2.41885 12.0356 1 13.4673 1 15.2277C1 16.5236 1.77031 17.6403 2.87587 18.1392C2.82808 18.4548 2.80188 18.7785 2.80188 19.107C2.80188 24.0197 8.48612 28 15.4979 28C22.5095 28 28.1937 24.0197 28.1937 19.107C28.1937 18.7829 28.1677 18.4633 28.1199 18.1481C29.221 17.649 30 16.5325 30 15.2277" fill="#D8AAF8"/>
</svg>
