<svg width="30" height="30" viewBox="0 0 30 30" fill="none" xmlns="http://www.w3.org/2000/svg">
<path d="M1.69135 14.5079L8.0429 16.8785L10.5013 24.7848C10.6586 25.2912 11.2778 25.4784 11.6888 25.1423L15.2293 22.2561C15.6004 21.9537 16.129 21.9386 16.5169 22.2202L22.9026 26.8563C23.3422 27.1759 23.9651 26.935 24.0754 26.4037L28.7533 3.90225C28.8736 3.32191 28.3034 2.83778 27.7508 3.0515L1.68391 13.1073C1.04063 13.3554 1.04623 14.2662 1.69135 14.5079ZM10.1051 15.6166L22.5184 7.97122C22.7415 7.83422 22.971 8.13588 22.7795 8.31358L12.5349 17.8364C12.1748 18.1716 11.9425 18.6202 11.8767 19.1071L11.5278 21.6932C11.4815 22.0385 10.9965 22.0728 10.9012 21.7386L9.55907 17.0227C9.40535 16.4848 9.62936 15.9102 10.1051 15.6166Z" fill="#D8AAF8"/>
</svg>
