<svg width="30" height="30" viewBox="0 0 30 30" fill="none" xmlns="http://www.w3.org/2000/svg">
<path d="M25.1905 2H4.80948C3.2579 2 2 3.2579 2 4.80948V25.1905C2 26.7421 3.2579 28 4.80948 28H25.1905C26.7421 28 28 26.7421 28 25.1905V4.80948C28 3.2579 26.7421 2 25.1905 2ZM23.0201 13.3262C21.3742 13.3262 19.849 12.7997 18.6038 11.906V18.3563C18.6038 21.5781 15.983 24.1989 12.7616 24.1989C11.5169 24.1989 10.3625 23.8063 9.4135 23.1398C7.90706 22.0823 6.91951 20.3329 6.91951 18.3563C6.91951 15.1349 9.54031 12.5141 12.7616 12.5141C13.029 12.5141 13.2912 12.5359 13.5489 12.5709V15.8116C13.2998 15.7334 13.0361 15.6883 12.7616 15.6883C11.2902 15.6883 10.0937 16.8853 10.0937 18.3563C10.0937 19.3808 10.6744 20.271 11.524 20.7179C11.8943 20.9132 12.3148 21.0247 12.7616 21.0247C14.1991 21.0247 15.3713 19.8815 15.4245 18.4567L15.4296 5.73617H18.6038C18.6038 6.01108 18.6307 6.27991 18.6789 6.54112C18.903 7.75084 19.6208 8.7881 20.6149 9.43683C21.3078 9.88826 22.1335 10.152 23.0201 10.152V13.3262V13.3262Z" fill="white"/>
</svg>
