<svg width="25" height="24" viewBox="0 0 25 24" fill="none" xmlns="http://www.w3.org/2000/svg">
<g clip-path="url(#clip0_139_24)">
<path d="M22.0316 0H3.21837C1.78614 0 0.625 1.16114 0.625 2.59337V21.4066C0.625 22.8389 1.78614 24 3.21837 24H22.0316C23.4639 24 24.625 22.8389 24.625 21.4066V2.59337C24.625 1.16114 23.4639 0 22.0316 0ZM20.0282 10.4549C18.5089 10.4549 17.101 9.96894 15.9516 9.14397V15.0981C15.9516 18.0721 13.5324 20.4913 10.5588 20.4913C9.40986 20.4913 8.34423 20.1289 7.46823 19.5137C6.07767 18.5375 5.16608 16.9227 5.16608 15.0981C5.16608 12.1245 7.58528 9.70534 10.5588 9.70534C10.8056 9.70534 11.0476 9.72548 11.2855 9.75778V12.7491C11.0556 12.677 10.8121 12.6353 10.5588 12.6353C9.20057 12.6353 8.09609 13.7403 8.09609 15.0981C8.09609 16.0439 8.63218 16.8655 9.41642 17.278C9.7582 17.4583 10.1463 17.5613 10.5588 17.5613C11.8857 17.5613 12.9677 16.506 13.0169 15.1908L13.0216 3.44877H15.9516C15.9516 3.70254 15.9764 3.95068 16.0209 4.19181C16.2278 5.30847 16.8903 6.26594 17.808 6.86477C18.4476 7.28147 19.2098 7.52493 20.0282 7.52493V10.4549V10.4549Z" fill="#D8AAF8"/>
</g>
<defs>
<clipPath id="clip0_139_24">
<rect width="24" height="24" fill="white" transform="translate(0.625)"/>
</clipPath>
</defs>
</svg>
