<svg width="30" height="30" viewBox="0 0 30 30" fill="none" xmlns="http://www.w3.org/2000/svg">
<path d="M29 6.72285C27.9587 7.18462 26.8492 7.49069 25.6925 7.63931C26.8825 6.921 27.7908 5.79223 28.2178 4.43169C27.1083 5.10046 25.8832 5.57285 24.5777 5.83646C23.5242 4.70238 22.0227 4 20.3847 4C17.2067 4 14.6482 6.60785 14.6482 9.80485C14.6482 10.2648 14.6867 10.7072 14.7812 11.1282C10.009 10.8929 5.78625 8.58054 2.9495 5.058C2.45425 5.92669 2.16375 6.921 2.16375 7.99138C2.16375 10.0012 3.1875 11.7828 4.7135 12.8143C3.79125 12.7966 2.8865 12.5259 2.12 12.0995C2.12 12.1172 2.12 12.1402 2.12 12.1632C2.12 14.9834 4.10975 17.3258 6.719 17.8655C6.25175 17.9946 5.7425 18.0565 5.214 18.0565C4.8465 18.0565 4.4755 18.0353 4.12725 17.9575C4.871 20.2557 6.9815 21.9453 9.491 22.0002C7.538 23.5447 5.05825 24.4753 2.37375 24.4753C1.903 24.4753 1.4515 24.4541 1 24.3957C3.54275 26.0535 6.55625 27 9.806 27C20.369 27 26.144 18.1538 26.144 10.486C26.144 10.2295 26.1352 9.98177 26.123 9.73585C27.2622 8.91846 28.2195 7.89762 29 6.72285Z" fill="white"/>
</svg>
