<svg width="288" height="288" viewBox="0 0 288 288" fill="none" xmlns="http://www.w3.org/2000/svg">
<g clip-path="url(#clip0_88_5)">
<path d="M156.713 23.2875C149.681 16.2562 138.263 16.2562 131.231 23.2875L41.2314 113.287C34.2002 120.319 34.2002 131.737 41.2314 138.769C48.2627 145.8 59.6814 145.8 66.7127 138.769L126 79.425V252C126 261.956 134.044 270 144 270C153.956 270 162 261.956 162 252V79.425L221.288 138.712C228.319 145.744 239.738 145.744 246.769 138.712C253.8 131.681 253.8 120.262 246.769 113.231L156.769 23.2312L156.713 23.2875Z" fill="white"/>
</g>
<defs>
<clipPath id="clip0_88_5">
<rect width="288" height="288" fill="white"/>
</clipPath>
</defs>
</svg>
